<svg width="18" height="16" viewBox="0 0 18 16" version="1.1" xmlns="http://www.w3.org/2000/svg" xmlns:xlink="http://www.w3.org/1999/xlink">
<title>Vector</title>
<g id="Canvas" transform="translate(-4554 -939)">
<rect x="4554" y="939" width="18" height="16" fill="#E5E5E5"/>
<clipPath id="clip-0" clip-rule="evenodd">
<path d="M 4320 0L 5720 0L 5720 2811L 4320 2811L 4320 0Z" fill="#FFFFFF"/>
</clipPath>
<g id="&#208;&#150;&#209;&#131;&#209;&#128;&#208;&#189;&#208;&#176;&#208;&#187;" clip-path="url(#clip-0)">
<path d="M 4320 0L 5720 0L 5720 2811L 4320 2811L 4320 0Z" fill="#F3F3F3"/>
<g id="Post short">
<g id="Rectangle 3.1">
<use xlink:href="#path0_fill" transform="translate(4436 114)" fill="#FFFFFF"/>
<mask id="mask0_outline_ins">
<use xlink:href="#path0_fill" fill="white" transform="translate(4436 114)"/>
</mask>
<g mask="url(#mask0_outline_ins)">
<use xlink:href="#path1_stroke_2x" transform="translate(4436 114)" fill="#EEEEEE"/>
</g>
</g>
<g id="post footer">
<g id="Rectangle 3.1">
<use xlink:href="#path2_fill" transform="translate(4436 923)" fill="#FFFFFF"/>
<mask id="mask1_outline_ins">
<use xlink:href="#path2_fill" fill="white" transform="translate(4436 923)"/>
</mask>
<g mask="url(#mask1_outline_ins)">
<use xlink:href="#path3_stroke_2x" transform="translate(4436 923)" fill="#EEEEEE"/>
</g>
</g>
<g id="chat">
<g id="Vector">
<use xlink:href="#path4_fill" transform="translate(4554 939)" fill="#DDDDDD"/>
</g>
</g>
</g>
</g>
</g>
</g>
<defs>
<path id="path0_fill" d="M 0 0L 770 0L 770 857L 0 857L 0 0Z"/>
<path id="path1_stroke_2x" d="M 0 0L 0 -1L -1 -1L -1 0L 0 0ZM 770 0L 771 0L 771 -1L 770 -1L 770 0ZM 770 857L 770 858L 771 858L 771 857L 770 857ZM 0 857L -1 857L -1 858L 0 858L 0 857ZM 0 1L 770 1L 770 -1L 0 -1L 0 1ZM 769 0L 769 857L 771 857L 771 0L 769 0ZM 770 856L 0 856L 0 858L 770 858L 770 856ZM 1 857L 1 0L -1 0L -1 857L 1 857Z"/>
<path id="path2_fill" d="M 0 0L 770 0L 770 48L 0 48L 0 0Z"/>
<path id="path3_stroke_2x" d="M 0 0L 0 -1L -1 -1L -1 0L 0 0ZM 770 0L 771 0L 771 -1L 770 -1L 770 0ZM 770 48L 770 49L 771 49L 771 48L 770 48ZM 0 48L -1 48L -1 49L 0 49L 0 48ZM 0 1L 770 1L 770 -1L 0 -1L 0 1ZM 769 0L 769 48L 771 48L 771 0L 769 0ZM 770 47L 0 47L 0 49L 770 49L 770 47ZM 1 48L 1 0L -1 0L -1 48L 1 48Z"/>
<path id="path4_fill" d="M 1.8 0L 16.2 0C 17.1756 0 18 0.785143 18 1.71429L 18 11.1429C 18 12.072 17.1756 12.8571 16.2 12.8571L 7.6326 12.8571L 4.722 15.9066C 4.6638 15.9671 4.5828 16 4.5 16C 4.4637 16 4.4271 15.9937 4.3917 15.9809C 4.2762 15.9383 4.2 15.8323 4.2 15.7143L 4.2 12.8571L 1.8 12.8571C 0.8244 12.8571 0 12.072 0 11.1429L 0 1.71429C 0 0.785143 0.8244 0 1.8 0Z"/>
</defs>
</svg>
