<svg width="21" height="22" viewBox="0 0 21 22" version="1.1" xmlns="http://www.w3.org/2000/svg" xmlns:xlink="http://www.w3.org/1999/xlink">
<title>attachment</title>
<desc>Created using Figma</desc>
<g id="Canvas" transform="translate(-2694 1012)">
<g id="attachment">
<g id="Vector">
<use xlink:href="#path1_fill" transform="translate(2695 -1011)" fill="#CCCCCC"/>
<mask id="mask0_outline_out">
<rect id="mask0_outline_inv" fill="white" x="-1" y="-1" width="21" height="22" transform="translate(2695 -1011)"/>
<use xlink:href="#path1_fill" fill="black" transform="translate(2695 -1011)"/>
</mask>
<g mask="url(#mask0_outline_out)">
<use xlink:href="#path1_stroke_2x" transform="translate(2695 -1011)" fill="#CCCCCC"/>
</g>
</g>
</g>
</g>
<defs>
<path id="path1_fill" d="M 18.8869 7.44144C 18.736 7.28995 18.4922 7.28995 18.3413 7.44144L 7.8113 18.0163C 7.03507 18.7958 5.9992 19.2247 4.89349 19.2247C 3.7874 19.2247 2.75114 18.7958 1.9753 18.0163C 1.19945 17.2368 0.771987 16.1965 0.771987 15.0857C 0.771987 13.9753 1.19907 12.9346 1.9753 12.1554L 12.505 1.5802C 13.6226 0.45817 15.3772 0.526747 16.5863 1.74022C 17.795 2.95407 17.8637 4.71655 16.7461 5.83897L 6.85413 15.7734C 6.30128 16.3286 5.40082 16.329 4.84681 15.7734C 4.29357 15.2174 4.29357 14.3131 4.84681 13.7575L 11.5478 7.02803C 11.6986 6.87654 11.6986 6.63168 11.5478 6.48019C 11.3969 6.3287 11.1531 6.3287 11.0023 6.48019L 4.30129 13.2093C 3.44713 14.0671 3.44713 15.4627 4.30129 16.3208C 5.15622 17.1794 6.54626 17.1779 7.39965 16.3208L 17.292 6.38643C 18.7206 4.95134 18.6519 2.71812 17.1322 1.19199C 15.613 -0.333763 13.3888 -0.403115 11.9598 1.03197L 1.42939 11.6072C 0.507328 12.5328 -2.20757e-08 13.768 -2.20757e-08 15.0857C -2.20757e-08 16.4034 0.507328 17.6389 1.42939 18.5645C 2.35107 19.4905 3.581 20 4.89349 20C 6.20522 20 7.43553 19.4905 8.35721 18.5645L 18.8869 7.98928C 19.0377 7.83779 19.0377 7.59254 18.8869 7.44144Z"/>
<path id="path1_stroke_2x" d="M 18.8869 7.44144L 18.7097 7.61784L 18.7099 7.61806L 18.8869 7.44144ZM 18.3413 7.44144L 18.5185 7.61784L 18.3413 7.44144ZM 7.8113 18.0163L 7.98845 18.1927L 7.8113 18.0163ZM 1.9753 12.1554L 2.15241 12.3319L 2.15246 12.3318L 1.9753 12.1554ZM 12.505 1.5802L 12.3278 1.40377L 12.3278 1.40381L 12.505 1.5802ZM 16.5863 1.74022L 16.7635 1.56382L 16.7634 1.56376L 16.5863 1.74022ZM 16.7461 5.83897L 16.5689 5.66257L 16.5689 5.66258L 16.7461 5.83897ZM 6.85413 15.7734L 7.03128 15.9498L 7.03129 15.9498L 6.85413 15.7734ZM 4.84681 15.7734L 4.6696 15.9497L 4.66978 15.9499L 4.84681 15.7734ZM 4.84681 13.7575L 4.66966 13.5811L 4.84681 13.7575ZM 11.5478 7.02803L 11.7249 7.20444L 11.7249 7.20443L 11.5478 7.02803ZM 11.0023 6.48019L 11.1794 6.6566L 11.1794 6.65659L 11.0023 6.48019ZM 4.30129 13.2093L 4.12414 13.0329L 4.12414 13.0329L 4.30129 13.2093ZM 4.30129 16.3208L 4.1241 16.4972L 4.12414 16.4972L 4.30129 16.3208ZM 7.39965 16.3208L 7.2225 16.1444L 7.39965 16.3208ZM 17.292 6.38643L 17.4691 6.56283L 17.4691 6.56281L 17.292 6.38643ZM 17.1322 1.19199L 17.3094 1.01559L 17.1322 1.19199ZM 11.9598 1.03197L 12.137 1.20837L 11.9598 1.03197ZM 1.42939 11.6072L 1.60651 11.7837L 1.60654 11.7836L 1.42939 11.6072ZM 1.42939 18.5645L 1.60658 18.3882L 1.60651 18.3881L 1.42939 18.5645ZM 8.35721 18.5645L 8.18005 18.3881L 8.18002 18.3882L 8.35721 18.5645ZM 18.8869 7.98928L 18.7097 7.81288L 18.7097 7.81289L 18.8869 7.98928ZM 19.064 7.26503C 18.8155 7.01541 18.4128 7.01541 18.1642 7.26503L 18.5185 7.61784C 18.5716 7.56448 18.6566 7.56448 18.7097 7.61784L 19.064 7.26503ZM 18.1642 7.26503L 7.63415 17.8399L 7.98845 18.1927L 18.5185 7.61784L 18.1642 7.26503ZM 7.63415 17.8399C 6.90512 18.572 5.93312 18.9747 4.89349 18.9747L 4.89349 19.4747C 6.06528 19.4747 7.16502 19.0196 7.98845 18.1927L 7.63415 17.8399ZM 4.89349 18.9747C 3.85343 18.9747 2.88108 18.572 2.15249 17.8399L 1.7981 18.1927C 2.6212 19.0197 3.72137 19.4747 4.89349 19.4747L 4.89349 18.9747ZM 2.15249 17.8399C 1.42374 17.1077 1.02199 16.131 1.02199 15.0857L 0.521987 15.0857C 0.521987 16.2619 0.975166 17.3658 1.7981 18.1927L 2.15249 17.8399ZM 1.02199 15.0857C 1.02199 14.0406 1.42341 13.0636 2.15241 12.3319L 1.79819 11.979C 0.974729 12.8056 0.521987 13.9099 0.521987 15.0857L 1.02199 15.0857ZM 2.15246 12.3318L 12.6821 1.7566L 12.3278 1.40381L 1.79814 11.9791L 2.15246 12.3318ZM 12.6821 1.75663C 13.6892 0.745547 15.2845 0.787896 16.4092 1.91667L 16.7634 1.56376C 15.4699 0.265598 13.556 0.170792 12.3278 1.40377L 12.6821 1.75663ZM 16.4092 1.91662C 17.5339 3.04616 17.5768 4.65042 16.5689 5.66257L 16.9232 6.01537C 18.1507 4.78268 18.0562 2.86199 16.7635 1.56382L 16.4092 1.91662ZM 16.5689 5.66258L 6.67698 15.597L 7.03129 15.9498L 16.9232 6.01537L 16.5689 5.66258ZM 6.67698 15.597C 6.22187 16.054 5.48019 16.0545 5.02384 15.5969L 4.66978 15.9499C 5.32146 16.6034 6.38069 16.6032 7.03128 15.9498L 6.67698 15.597ZM 5.02402 15.597C 4.5678 15.1386 4.56789 14.3919 5.02396 13.9339L 4.66966 13.5811C 4.01926 14.2343 4.01935 15.2963 4.6696 15.9497L 5.02402 15.597ZM 5.02396 13.9339L 11.7249 7.20444L 11.3706 6.85163L 4.66966 13.5811L 5.02396 13.9339ZM 11.7249 7.20443C 11.9729 6.9554 11.9729 6.55282 11.7249 6.30379L 11.3706 6.65659C 11.4243 6.71054 11.4243 6.79769 11.3706 6.85163L 11.7249 7.20443ZM 11.7249 6.30379C 11.4764 6.05417 11.0737 6.05417 10.8251 6.30379L 11.1794 6.65659C 11.2325 6.60323 11.3175 6.60323 11.3706 6.65659L 11.7249 6.30379ZM 10.8251 6.30378L 4.12414 13.0329L 4.47844 13.3857L 11.1794 6.6566L 10.8251 6.30378ZM 4.12414 13.0329C 3.17282 13.9883 3.17288 15.5415 4.1241 16.4972L 4.47848 16.1445C 3.72137 15.3838 3.72143 14.1459 4.47844 13.3857L 4.12414 13.0329ZM 4.12414 16.4972C 5.0769 17.4541 6.62581 17.4523 7.57681 16.4972L 7.2225 16.1444C 6.46671 16.9035 5.23554 16.9048 4.47844 16.1444L 4.12414 16.4972ZM 7.57681 16.4972L 17.4691 6.56283L 17.1148 6.21003L 7.2225 16.1444L 7.57681 16.4972ZM 17.4691 6.56281C 19.0049 5.0201 18.9158 2.62888 17.3094 1.01559L 16.9551 1.36839C 18.388 2.80737 18.4363 4.88258 17.1148 6.21005L 17.4691 6.56281ZM 17.3094 1.01559C 15.7029 -0.59776 13.3196 -0.687864 11.7827 0.855571L 12.137 1.20837C 13.4581 -0.118367 15.523 -0.0697657 16.9551 1.36839L 17.3094 1.01559ZM 11.7827 0.855571L 1.25224 11.4308L 1.60654 11.7836L 12.137 1.20837L 11.7827 0.855571ZM 1.25228 11.4308C 0.283054 12.4037 -0.25 13.7025 -0.25 15.0857L 0.25 15.0857C 0.25 13.8334 0.731601 12.6619 1.60651 11.7837L 1.25228 11.4308ZM -0.25 15.0857C -0.25 16.4688 0.28304 17.768 1.25228 18.741L 1.60651 18.3881C 0.731615 17.5098 0.25 16.3379 0.25 15.0857L -0.25 15.0857ZM 1.2522 18.7409C 2.22106 19.7143 3.51487 20.25 4.89349 20.25L 4.89349 19.75C 3.64713 19.75 2.48107 19.2667 1.60658 18.3882L 1.2522 18.7409ZM 4.89349 20.25C 6.27134 20.25 7.56554 19.7143 8.5344 18.7409L 8.18002 18.3882C 7.30553 19.2667 6.13909 19.75 4.89349 19.75L 4.89349 20.25ZM 8.53437 18.7409L 19.064 8.16567L 18.7097 7.81289L 8.18005 18.3881L 8.53437 18.7409ZM 19.064 8.16568C 19.3119 7.91677 19.3122 7.51363 19.0638 7.26481L 18.7099 7.61806C 18.7632 7.67144 18.7636 7.75881 18.7097 7.81288L 19.064 8.16568Z"/>
</defs>
</svg>
