<svg width="16" height="16" viewBox="0 0 16 16" version="1.1" xmlns="http://www.w3.org/2000/svg" xmlns:xlink="http://www.w3.org/1999/xlink">
<title>Group</title>
<desc>Created using Figma</desc>
<g id="Canvas" transform="translate(-20398 -297)">
<g id="Group">
<g id="Vector">
<use xlink:href="#lk-attach-1" transform="translate(20398 297)" fill="#222222"/>
</g>
</g>
</g>
<defs>
<path id="lk-attach-1" d="M 14.9361 6.00311L 14.7978 6.14079L 14.7979 6.14096L 14.9361 6.00311ZM 14.5102 6.00311L 14.6485 6.14079L 14.5102 6.00311ZM 6.29172 14.2566L 6.42999 14.3943L 6.29172 14.2566ZM 1.73681 9.68229L 1.87505 9.82004L 1.87508 9.81996L 1.73681 9.68229ZM 9.95509 1.4285L 9.81679 1.2908L 9.81679 1.29083L 9.95509 1.4285ZM 13.1405 1.55339L 13.2788 1.41571L 13.2787 1.41567L 13.1405 1.55339ZM 13.2652 4.75241L 13.1269 4.61473L 13.1269 4.61474L 13.2652 4.75241ZM 5.54467 12.5061L 5.68293 12.6438L 5.68294 12.6438L 5.54467 12.5061ZM 3.97798 12.5061L 3.83967 12.6437L 3.83981 12.6438L 3.97798 12.5061ZM 3.97798 10.9327L 3.83972 10.795L 3.97798 10.9327ZM 9.20801 5.68045L 9.34623 5.81814L 9.34623 5.81813L 9.20801 5.68045ZM 8.78225 5.25287L 8.92048 5.39055L 8.92048 5.39055L 8.78225 5.25287ZM 3.55221 10.5048L 3.41395 10.3672L 3.55221 10.5048ZM 3.55221 12.9333L 3.41392 13.071L 3.41395 13.071L 3.55221 12.9333ZM 5.97044 12.9333L 5.83217 12.7956L 5.97044 12.9333ZM 13.6913 5.17969L 13.8295 5.31737L 13.8295 5.31735L 13.6913 5.17969ZM 13.5665 1.12551L 13.7049 0.98783L 13.5665 1.12551ZM 9.52957 1.00061L 9.66787 1.13829L 9.52957 1.00061ZM 1.31074 9.25442L 1.44898 9.39218L 1.449 9.3921L 1.31074 9.25442ZM 1.31074 14.6845L 1.44903 14.5469L 1.44898 14.5468L 1.31074 14.6845ZM 6.7178 14.6845L 6.57953 14.5468L 6.57951 14.5469L 6.7178 14.6845ZM 14.9361 6.43069L 14.7978 6.29301L 14.7978 6.29302L 14.9361 6.43069ZM 15.0743 5.86542C 14.8803 5.6706 14.566 5.6706 14.372 5.86542L 14.6485 6.14079C 14.69 6.09914 14.7563 6.09914 14.7978 6.14079L 15.0743 5.86542ZM 14.372 5.86542L 6.15346 14.119L 6.42999 14.3943L 14.6485 6.14079L 14.372 5.86542ZM 6.15346 14.119C 5.58446 14.6903 4.82583 15.0046 4.01442 15.0046L 4.01442 15.3949C 4.92898 15.3949 5.78731 15.0397 6.42999 14.3943L 6.15346 14.119ZM 4.01442 15.0046C 3.20267 15.0046 2.44376 14.6903 1.87511 14.119L 1.59851 14.3943C 2.24093 15.0398 3.0996 15.3949 4.01442 15.3949L 4.01442 15.0046ZM 1.87511 14.119C 1.30633 13.5475 0.992769 12.7852 0.992769 11.9693L 0.602524 11.9693C 0.602524 12.8873 0.956224 13.7489 1.59851 14.3943L 1.87511 14.119ZM 0.992769 11.9693C 0.992769 11.1537 1.30607 10.3911 1.87505 9.82004L 1.59858 9.54461C 0.955883 10.1898 0.602524 11.0516 0.602524 11.9693L 0.992769 11.9693ZM 1.87508 9.81996L 10.0933 1.56618L 9.81679 1.29083L 1.59854 9.54469L 1.87508 9.81996ZM 10.0933 1.5662C 10.8793 0.777065 12.1244 0.810118 13.0023 1.69111L 13.2787 1.41567C 12.2691 0.402472 10.7754 0.328477 9.81679 1.2908L 10.0933 1.5662ZM 13.0023 1.69107C 13.8801 2.57266 13.9136 3.82476 13.1269 4.61473L 13.4034 4.89008C 14.3615 3.92799 14.2877 2.42892 13.2788 1.41571L 13.0023 1.69107ZM 13.1269 4.61474L 5.4064 12.3684L 5.68294 12.6438L 13.4034 4.89008L 13.1269 4.61474ZM 5.4064 12.3684C 5.0512 12.7251 4.47233 12.7255 4.11615 12.3683L 3.83981 12.6438C 4.34844 13.1539 5.17515 13.1537 5.68293 12.6438L 5.4064 12.3684ZM 4.11629 12.3684C 3.76022 12.0106 3.76029 11.4278 4.11625 11.0704L 3.83972 10.795C 3.33209 11.3048 3.33216 12.1337 3.83967 12.6437L 4.11629 12.3684ZM 4.11625 11.0704L 9.34623 5.81814L 9.06971 5.54277L 3.83972 10.795L 4.11625 11.0704ZM 9.34623 5.81813C 9.53979 5.62376 9.53979 5.30956 9.34623 5.11519L 9.06971 5.39055C 9.11162 5.43265 9.11162 5.50067 9.06971 5.54277L 9.34623 5.81813ZM 9.34623 5.11519C 9.15228 4.92037 8.83798 4.92037 8.64395 5.11519L 8.92048 5.39055C 8.96192 5.3489 9.02826 5.3489 9.06971 5.39055L 9.34623 5.11519ZM 8.64395 5.11518L 3.41395 10.3672L 3.69048 10.6425L 8.92048 5.39055L 8.64395 5.11518ZM 3.41395 10.3672C 2.67146 11.1128 2.67151 12.3251 3.41392 13.071L 3.69051 12.7957C 3.0996 12.202 3.09964 11.2358 3.69048 10.6425L 3.41395 10.3672ZM 3.41395 13.071C 4.15757 13.8178 5.36647 13.8164 6.10871 13.071L 5.83217 12.7956C 5.24229 13.3881 4.28138 13.3891 3.69048 12.7956L 3.41395 13.071ZM 6.10871 13.071L 13.8295 5.31737L 13.553 5.04201L 5.83217 12.7956L 6.10871 13.071ZM 13.8295 5.31735C 15.0282 4.11329 14.9586 2.24698 13.7049 0.98783L 13.4283 1.26318C 14.5467 2.38629 14.5844 4.00596 13.553 5.04203L 13.8295 5.31735ZM 13.7049 0.98783C 12.451 -0.271366 10.5909 -0.341691 9.39134 0.862937L 9.66787 1.13829C 10.699 0.102793 12.3106 0.140726 13.4283 1.26318L 13.7049 0.98783ZM 9.39134 0.862937L 1.17248 9.11675L 1.449 9.3921L 9.66787 1.13829L 9.39134 0.862937ZM 1.17251 9.11675C 0.416041 9.87608 0 10.8898 0 11.9693L 0.390243 11.9693C 0.390243 10.9919 0.766125 10.0776 1.44898 9.39218L 1.17251 9.11675ZM 0 11.9693C 0 13.0488 0.41603 14.0628 1.17251 14.8222L 1.44898 14.5468C 0.766136 13.8613 0.390243 12.9467 0.390243 11.9693L 0 11.9693ZM 1.17244 14.8222C 1.92863 15.5819 2.93842 16 4.01442 16L 4.01442 15.6098C 3.04165 15.6098 2.13156 15.2325 1.44903 14.5469L 1.17244 14.8222ZM 4.01442 16C 5.08981 16 6.09991 15.5819 6.85609 14.8222L 6.57951 14.5469C 5.89698 15.2325 4.98659 15.6098 4.01442 15.6098L 4.01442 16ZM 6.85607 14.8222L 15.0743 6.56836L 14.7978 6.29302L 6.57953 14.5468L 6.85607 14.8222ZM 15.0743 6.56837C 15.2678 6.3741 15.268 6.05945 15.0741 5.86525L 14.7979 6.14096C 14.8395 6.18262 14.8398 6.25081 14.7978 6.29301L 15.0743 6.56837Z"/>
</defs>
</svg>
