<svg width="16" height="14" viewBox="0 0 16 14" version="1.1" xmlns="http://www.w3.org/2000/svg" xmlns:xlink="http://www.w3.org/1999/xlink">
<title>Group</title>
<desc>Created using Figma</desc>
<g id="Canvas" transform="translate(-21223 -316)">
<g id="Group">
<g id="Vector">
<use xlink:href="#lk-download-1" transform="translate(21223 322.761)" fill="#1A82CB"/>
</g>
<g id="Vector">
<use xlink:href="#lk-download-2" transform="translate(21227.3 316)" fill="#1A82CB"/>
</g>
</g>
</g>
<defs>
<path id="lk-download-1" d="M 14.6062 0.064117C 14.3669 0.064117 14.1754 0.256469 14.1754 0.496908L 14.1754 4.43371C 14.1754 5.50447 13.3074 6.37325 12.2447 6.37325L 2.79232 6.37325C 1.72645 6.37325 0.86163 5.50126 0.86163 4.43371L 0.86163 0.432791C 0.86163 0.192352 0.670157 -1.9567e-07 0.430815 -1.9567e-07C 0.191473 -1.9567e-07 0 0.192352 0 0.432791L 0 4.43371C 0 5.98214 1.25415 7.23884 2.79232 7.23884L 12.2447 7.23884C 13.7861 7.23884 15.037 5.97893 15.037 4.43371L 15.037 0.496908C 15.037 0.259675 14.8456 0.064117 14.6062 0.064117Z"/>
<path id="lk-download-2" d="M 2.86811 10.5633C 2.95108 10.6467 3.06278 10.6915 3.17128 10.6915C 3.27978 10.6915 3.39147 10.6499 3.47444 10.5633L 6.21251 7.81269C 6.38165 7.64278 6.38165 7.37028 6.21251 7.20037C 6.04338 7.03046 5.77212 7.03046 5.60299 7.20037L 3.60209 9.21365L 3.60209 0.432791C 3.60209 0.192352 3.41062 0 3.17128 0C 2.93194 0 2.74046 0.192352 2.74046 0.432791L 2.74046 9.21365L 0.736374 7.20037C 0.56724 7.03046 0.295986 7.03046 0.126851 7.20037C -0.0422838 7.37028 -0.0422838 7.64278 0.126851 7.81269L 2.86811 10.5633Z"/>
</defs>
</svg>
