<svg width="17" height="14" viewBox="0 0 17 14" version="1.1" xmlns="http://www.w3.org/2000/svg" xmlns:xlink="http://www.w3.org/1999/xlink">
<title>messages</title>
<desc>Created using Figma</desc>
<g id="Canvas" transform="translate(-20398 -241)">
<g id="messages">
<g id="Group">
<g id="Vector">
<use xlink:href="#lk-messages" transform="translate(20398 241)" fill="#AAAAAA"/>
</g>
</g>
</g>
</g>
<defs>
<path id="lk-messages" d="M 15.2398 2.903C 14.5107 2.0068 13.5202 1.29883 12.2685 0.779287C 11.0168 0.259741 9.6495 -6.8199e-09 8.16681 -6.8199e-09C 6.68415 -6.8199e-09 5.3169 0.259741 4.06516 0.779287C 2.81341 1.29883 1.82298 2.00667 1.09378 2.903C 0.364551 3.79926 0 4.776 0 5.83332C 0 6.74474 0.274874 7.59874 0.824844 8.39472C 1.37481 9.19074 2.12668 9.85924 3.08079 10.4C 3.01387 10.643 2.93489 10.8738 2.84371 11.0928C 2.75257 11.3115 2.67055 11.4908 2.59763 11.6306C 2.52465 11.7703 2.42601 11.9253 2.30134 12.0953C 2.17686 12.2655 2.08269 12.3856 2.01887 12.4555C 1.95511 12.5254 1.8503 12.6407 1.70438 12.8018C 1.55864 12.9628 1.4644 13.0678 1.4219 13.1164C 1.41574 13.1195 1.39148 13.1466 1.34896 13.1986C 1.30646 13.2501 1.28514 13.2758 1.28514 13.2758L 1.23045 13.3578C 1.20003 13.4032 1.18636 13.4321 1.18936 13.4441C 1.19243 13.4564 1.18636 13.4867 1.17117 13.5352C 1.15594 13.584 1.1575 13.6204 1.1757 13.6447L 1.1757 13.6539C 1.20003 13.7571 1.24858 13.8407 1.3215 13.9045C 1.39442 13.9681 1.47659 14 1.56764 14L 1.61326 14C 2.00833 13.9513 2.35465 13.8847 2.65235 13.7995C 4.24445 13.3925 5.64209 12.6572 6.84518 11.5937C 7.30088 11.6423 7.74144 11.6666 8.16674 11.6666C 9.6494 11.6666 11.0167 11.4069 12.2684 10.8872C 13.5201 10.3676 14.5106 9.65987 15.2397 8.76364C 15.969 7.86745 16.3336 6.89061 16.3336 5.83329C 16.3336 4.77613 15.9691 3.79926 15.2398 2.903ZM 14.2144 8.15765C 13.5792 8.87455 12.7224 9.44431 11.6439 9.86655C 10.5653 10.2887 9.40617 10.5 8.16658 10.5C 7.79597 10.5 7.40102 10.4757 6.98175 10.427L 6.46221 10.3725L 6.07027 10.7189C 5.32297 11.3753 4.48737 11.8947 3.56375 12.2776C 3.84322 11.7855 4.0559 11.2628 4.2018 10.71L 4.44787 9.83485L 3.65492 9.37928C 2.86497 8.92937 2.25285 8.39622 1.81828 7.7794C 1.38379 7.16277 1.16663 6.51396 1.16663 5.83345C 1.16663 5.00094 1.48413 4.22625 2.11908 3.50922C 2.75423 2.79225 3.6109 2.22255 4.68951 1.80025C 5.76813 1.37791 6.9271 1.16657 8.16678 1.16657C 9.40636 1.16657 10.5653 1.37782 11.6438 1.80012C 12.7224 2.22245 13.5791 2.79212 14.2143 3.50909C 14.8493 4.22612 15.1668 5.00085 15.1668 5.83329C 15.1668 6.66573 14.8493 7.44061 14.2144 8.15765Z"/>
</defs>
</svg>
