<?xml version="1.0" encoding="iso-8859-1"?>
<!-- Generator: Adobe Illustrator 19.0.0, SVG Export Plug-In . SVG Version: 6.00 Build 0)  -->
<svg version="1.1" id="Layer_1" xmlns="http://www.w3.org/2000/svg" xmlns:xlink="http://www.w3.org/1999/xlink" x="0px" y="0px"
	 viewBox="0 0 512 512" style="enable-background:new 0 0 512 512;" xml:space="preserve">
<g>
	<g>
		<path d="M439.652,66.783h-18.029c0.787,5.468,1.333,11.012,1.333,16.696v361.739c0,25.669-9.787,49.038-25.721,66.783h42.417
			c9.22,0,16.696-7.475,16.696-16.696V83.478C456.348,74.258,448.873,66.783,439.652,66.783z"/>
	</g>
</g>
<g>
	<g>
		<path d="M306.087,0c-9.217,0-16.696,7.473-16.696,16.696v50.087H72.348c-9.217,0-16.696,7.473-16.696,16.696v196.91
			c18.222-1.411,41.59-2.127,50.087-2.127c58.565,0,111.413,34.396,135.903,86.098c14.353-9.529,30.583-15.692,47.75-18.125v33.855
			c-16.319,3.287-31.254,11.394-43.153,23.628c-8.942,9.186-24.537,5.289-28.033-7.098c-14.151-50.027-60.402-84.968-112.466-84.968
			c-7.407,0-33.456,0.693-50.087,2.065v181.587c0,9.223,7.479,16.696,16.696,16.696c99.958,0,150.355,0,250.435,0
			c36.826,0,66.783-29.956,66.783-66.783V83.478C389.565,37.446,352.119,0,306.087,0z M139.13,133.565h66.783
			c9.217,0,16.696,7.473,16.696,16.696c0,9.223-7.479,16.696-16.696,16.696H139.13c-9.217,0-16.696-7.473-16.696-16.696
			S129.913,133.565,139.13,133.565z M289.391,233.739H139.13c-9.217,0-16.696-7.473-16.696-16.696
			c0-9.223,7.479-16.696,16.696-16.696h150.261V233.739z M356.174,387.397c-9.826-5.695-21.239-8.962-33.391-8.962V36.25
			c19.435,6.892,33.391,25.462,33.391,47.229V387.397z"/>
	</g>
</g>
<g>
</g>
<g>
</g>
<g>
</g>
<g>
</g>
<g>
</g>
<g>
</g>
<g>
</g>
<g>
</g>
<g>
</g>
<g>
</g>
<g>
</g>
<g>
</g>
<g>
</g>
<g>
</g>
<g>
</g>
</svg>
