<svg width="74" height="70" viewBox="0 0 74 70" version="1.1" xmlns="http://www.w3.org/2000/svg" xmlns:xlink="http://www.w3.org/1999/xlink">
<title>Group</title>
<desc>Created using Figma</desc>
<g id="Canvas" transform="translate(-10741 -433)">
<g id="Group">
<g id="Group">
<g id="Vector">
<use xlink:href="#thumbnail-1" transform="translate(10741 466.806)" fill="#1A82CB"/>
</g>
<g id="Vector">
<use xlink:href="#thumbnail-2" transform="translate(10762.4 433)" fill="#1A82CB"/>
</g>
</g>
</g>
</g>
<defs>
<path id="thumbnail-1" d="M 71.8799 0.320585C 70.702 0.320585 69.7598 1.28234 69.7598 2.48454L 69.7598 22.1685C 69.7598 27.5223 65.4881 31.8663 60.2585 31.8663L 13.7415 31.8663C 8.49618 31.8663 4.24024 27.5063 4.24024 22.1685L 4.24024 2.16396C 4.24024 0.961758 3.29796 -9.78351e-07 2.12012 -9.78351e-07C 0.942275 -9.78351e-07 0 0.961758 0 2.16396L 0 22.1685C 0 29.9107 6.1719 36.1942 13.7415 36.1942L 60.2585 36.1942C 67.8438 36.1942 74 29.8947 74 22.1685L 74 2.48454C 74 1.29837 73.0577 0.320585 71.8799 0.320585Z"/>
<path id="thumbnail-2" d="M 14.1145 52.8166C 14.5228 53.2333 15.0725 53.4577 15.6064 53.4577C 16.1404 53.4577 16.69 53.2494 17.0984 52.8166L 30.5729 39.0634C 31.4052 38.2139 31.4052 36.8514 30.5729 36.0018C 29.7406 35.1523 28.4057 35.1523 27.5733 36.0018L 17.7266 46.0682L 17.7266 2.16396C 17.7266 0.961759 16.7843 0 15.6064 0C 14.4286 0 13.4863 0.961759 13.4863 2.16396L 13.4863 46.0682L 3.62383 36.0018C 2.79149 35.1523 1.4566 35.1523 0.624257 36.0018C -0.208086 36.8514 -0.208086 38.2139 0.624257 39.0634L 14.1145 52.8166Z"/>
</defs>
</svg>
