<svg width="24" height="32" viewBox="0 0 24 32" version="1.1" xmlns="http://www.w3.org/2000/svg" xmlns:xlink="http://www.w3.org/1999/xlink">
<title>Vector</title>
<desc>Created using Figma</desc>
<g id="Canvas" transform="translate(-6299 -2636)">
<g id="Vector">
<use xlink:href="#path0_fill" transform="translate(6299 2636)" fill="#EA5757"/>
</g>
</g>
<defs>
<path id="path0_fill" d="M 23.9316 18.2672C 23.5651 13.614 21.3431 10.6981 19.3828 8.12497C 17.5677 5.7428 16 3.68568 16 0.651113C 16 0.407363 15.86 0.184576 15.638 0.0728774C 15.4153 -0.0394913 15.1477 -0.0210882 14.9453 0.122359C 12.0013 2.17632 9.54494 5.63811 8.68688 8.94117C 8.09119 11.2408 8.01237 13.826 8.00131 15.5334C 5.28256 14.9672 4.66669 11.0021 4.66019 10.9589C 4.62956 10.7533 4.50069 10.5743 4.31319 10.4765C 4.12375 10.3801 3.90106 10.3731 3.709 10.4658C 3.56644 10.533 0.209625 12.196 0.0143123 18.8358C 0.000624768 19.0567 0 19.2783 0 19.4998C 0 25.9505 5.38344 31.199 12 31.199C 12.0091 31.1996 12.0189 31.2009 12.0267 31.199C 12.0293 31.199 12.0319 31.199 12.0351 31.199C 18.6354 31.1805 24 25.9391 24 19.4998C 24 19.1754 23.9316 18.2672 23.9316 18.2672ZM 12 29.8991C 9.79425 29.8991 8 28.0356 8 25.7449C 8 25.6668 7.99937 25.5881 8.00519 25.4916C 8.03187 24.5256 8.22006 23.8661 8.42644 23.4275C 8.81319 24.2374 9.50456 24.9819 10.6276 24.9819C 10.9961 24.9819 11.2943 24.6912 11.2943 24.332C 11.2943 23.4066 11.3139 22.3389 11.5502 21.3754C 11.7605 20.5211 12.2631 19.6121 12.8998 18.8835C 13.183 19.8292 13.7351 20.5947 14.2742 21.3418C 15.0457 22.4106 15.8432 23.5157 15.9832 25.4002C 15.9916 25.5119 16.0001 25.6243 16.0001 25.7449C 16 28.0355 14.2057 29.8991 12 29.8991Z"/>
</defs>
</svg>
