<svg width="16" height="16" viewBox="0 0 16 16" version="1.1" xmlns="http://www.w3.org/2000/svg" xmlns:xlink="http://www.w3.org/1999/xlink">
<title>Group</title>
<desc>Created using Figma</desc>
<g id="Canvas" transform="translate(-5062 -939)">
<rect x="5062" y="939" width="16" height="16" fill="#E5E5E5"/>
<clipPath id="clip-0" clip-rule="evenodd">
<path d="M 4320 0L 5720 0L 5720 2811L 4320 2811L 4320 0Z" fill="#FFFFFF"/>
</clipPath>
<g id="&#208;&#150;&#209;&#131;&#209;&#128;&#208;&#189;&#208;&#176;&#208;&#187;" clip-path="url(#clip-0)">
<path d="M 4320 0L 5720 0L 5720 2811L 4320 2811L 4320 0Z" fill="#F3F3F3"/>
<g id="Post short">
<g id="Rectangle 3.1">
<use xlink:href="#path0_fill" transform="translate(4436 114)" fill="#FFFFFF"/>
<mask id="mask0_outline_ins">
<use xlink:href="#path0_fill" fill="white" transform="translate(4436 114)"/>
</mask>
<g mask="url(#mask0_outline_ins)">
<use xlink:href="#path1_stroke_2x" transform="translate(4436 114)" fill="#EEEEEE"/>
</g>
</g>
<g id="post footer">
<g id="Rectangle 3.1">
<use xlink:href="#path2_fill" transform="translate(4436 923)" fill="#FFFFFF"/>
<mask id="mask1_outline_ins">
<use xlink:href="#path2_fill" fill="white" transform="translate(4436 923)"/>
</mask>
<g mask="url(#mask1_outline_ins)">
<use xlink:href="#path3_stroke_2x" transform="translate(4436 923)" fill="#EEEEEE"/>
</g>
</g>
<g id="Group">
<g id="share">
<g id="Vector">
<use xlink:href="#path4_fill" transform="translate(5062 939)" fill="#1A82CB"/>
</g>
</g>
</g>
</g>
</g>
</g>
</g>
<defs>
<path id="path0_fill" d="M 0 0L 770 0L 770 857L 0 857L 0 0Z"/>
<path id="path1_stroke_2x" d="M 0 0L 0 -1L -1 -1L -1 0L 0 0ZM 770 0L 771 0L 771 -1L 770 -1L 770 0ZM 770 857L 770 858L 771 858L 771 857L 770 857ZM 0 857L -1 857L -1 858L 0 858L 0 857ZM 0 1L 770 1L 770 -1L 0 -1L 0 1ZM 769 0L 769 857L 771 857L 771 0L 769 0ZM 770 856L 0 856L 0 858L 770 858L 770 856ZM 1 857L 1 0L -1 0L -1 857L 1 857Z"/>
<path id="path2_fill" d="M 0 0L 770 0L 770 48L 0 48L 0 0Z"/>
<path id="path3_stroke_2x" d="M 0 0L 0 -1L -1 -1L -1 0L 0 0ZM 770 0L 771 0L 771 -1L 770 -1L 770 0ZM 770 48L 770 49L 771 49L 771 48L 770 48ZM 0 48L -1 48L -1 49L 0 49L 0 48ZM 0 1L 770 1L 770 -1L 0 -1L 0 1ZM 769 0L 769 48L 771 48L 771 0L 769 0ZM 770 47L 0 47L 0 49L 770 49L 770 47ZM 1 48L 1 0L -1 0L -1 48L 1 48Z"/>
<path id="path4_fill" d="M 14 12C 13.5135 12 13.084 12.1955 12.7385 12.4825L 9.6895 10.3065C 9.883 9.908 10 9.4705 10 9C 10 8.3535 9.789 7.756 9.4415 7.2675L 13.008 3.699C 13.3045 3.873 13.631 4 14 4C 15.1055 4 16 3.1055 16 2C 16 0.8945 15.1055 0 14 0C 12.8945 0 12 0.8945 12 2C 12 2.369 12.127 2.6955 12.301 2.992L 8.7345 6.5605C 8.242 6.209 7.6485 6 7 6C 5.8555 6 4.871 6.6505 4.365 7.5955L 1.957 6.791C 1.8595 6.342 1.4785 6 1 6C 0.4475 6 0 6.4475 0 7C 0 7.5525 0.4475 8 1 8C 1.252 8 1.4765 7.8985 1.6525 7.744L 4.047 8.543C 4.0235 8.6935 4 8.844 4 9C 4 10.656 5.344 12 7 12C 7.824 12 8.5725 11.666 9.115 11.127L 12.1445 13.289C 12.0585 13.5115 12 13.748 12 14C 12 15.1035 12.8945 16 14 16C 15.1055 16 16 15.1035 16 14C 16 12.8965 15.1055 12 14 12Z"/>
</defs>
</svg>
