<svg width="24" height="24" viewBox="0 0 24 24" version="1.1" xmlns="http://www.w3.org/2000/svg" xmlns:xlink="http://www.w3.org/1999/xlink">
<title>icon</title>
<desc>Created using Figma</desc>
<g id="Canvas" transform="translate(-4133 2607)">
<g id="icon">
<g id="Ellipse">
<mask id="mask0_outline_ins">
<use xlink:href="#about" fill="white" transform="translate(4133 -2607)"/>
</mask>
<g mask="url(#mask0_outline_ins)">
<use xlink:href="#path1_stroke_2x" transform="translate(4133 -2607)" fill="#1A82CB"/>
</g>
</g>
<g id="?">
<use xlink:href="#path2_fill" transform="translate(4141 -2604)" fill="#1A82CB"/>
</g>
</g>
</g>
<defs>
<path id="about" d="M 24 12C 24 18.6274 18.6274 24 12 24C 5.37258 24 0 18.6274 0 12C 0 5.37258 5.37258 0 12 0C 18.6274 0 24 5.37258 24 12Z"/>
<path id="path1_stroke_2x" d="M 22.5 12C 22.5 17.799 17.799 22.5 12 22.5L 12 25.5C 19.4558 25.5 25.5 19.4558 25.5 12L 22.5 12ZM 12 22.5C 6.20101 22.5 1.5 17.799 1.5 12L -1.5 12C -1.5 19.4558 4.54416 25.5 12 25.5L 12 22.5ZM 1.5 12C 1.5 6.20101 6.20101 1.5 12 1.5L 12 -1.5C 4.54416 -1.5 -1.5 4.54416 -1.5 12L 1.5 12ZM 12 1.5C 17.799 1.5 22.5 6.20101 22.5 12L 25.5 12C 25.5 4.54416 19.4558 -1.5 12 -1.5L 12 1.5Z"/>
<path id="path2_fill" d="M 2.71094 11.5078C 2.71094 10.7786 2.79948 10.1979 2.97656 9.76562C 3.15365 9.33333 3.47656 8.90885 3.94531 8.49219C 4.41927 8.07031 4.73438 7.72917 4.89062 7.46875C 5.04688 7.20312 5.125 6.92448 5.125 6.63281C 5.125 5.7526 4.71875 5.3125 3.90625 5.3125C 3.52083 5.3125 3.21094 5.43229 2.97656 5.67188C 2.7474 5.90625 2.6276 6.23177 2.61719 6.64844L 0.351562 6.64844C 0.361979 5.65365 0.682292 4.875 1.3125 4.3125C 1.94792 3.75 2.8125 3.46875 3.90625 3.46875C 5.01042 3.46875 5.86719 3.73698 6.47656 4.27344C 7.08594 4.80469 7.39062 5.55729 7.39062 6.53125C 7.39062 6.97396 7.29167 7.39323 7.09375 7.78906C 6.89583 8.17969 6.54948 8.61458 6.05469 9.09375L 5.42188 9.69531C 5.02604 10.0755 4.79948 10.5208 4.74219 11.0312L 4.71094 11.5078L 2.71094 11.5078ZM 2.48438 13.9062C 2.48438 13.5573 2.60156 13.2708 2.83594 13.0469C 3.07552 12.8177 3.38021 12.7031 3.75 12.7031C 4.11979 12.7031 4.42188 12.8177 4.65625 13.0469C 4.89583 13.2708 5.01562 13.5573 5.01562 13.9062C 5.01562 14.25 4.89844 14.5339 4.66406 14.7578C 4.4349 14.9818 4.13021 15.0938 3.75 15.0938C 3.36979 15.0938 3.0625 14.9818 2.82812 14.7578C 2.59896 14.5339 2.48438 14.25 2.48438 13.9062Z"/>
</defs>
</svg>
