<svg width="18" height="18" viewBox="0 0 18 18" version="1.1" xmlns="http://www.w3.org/2000/svg" xmlns:xlink="http://www.w3.org/1999/xlink">
<g id="Canvas" fill="none">
<g id="clock" opacity="0.5">
<g id="Group">
<g id="Group_2">
<g id="Vector">
<path fill-rule="evenodd" clip-rule="evenodd" d="M 4.84196 15.4447L 4.84196 15.4447C 2.85193 14.5908 1.39313 13.1341 0.537956 11.1407C 0.108943 10.1406 -0.1 9.08468 -0.1 7.98682C -0.1 6.88907 0.108984 5.8417 0.537956 4.84196C 1.39321 2.84834 2.85194 1.40029 4.84197 0.546737C 5.84441 0.116671 6.88856 -0.1 7.98685 -0.1C 9.08536 -0.1 10.1371 0.118722 11.1405 0.546657C 13.1471 1.40248 14.5995 2.85154 15.4533 4.84195C 15.8835 5.84456 16.1 6.88854 16.1 7.98682C 16.1 9.08522 15.8834 10.1379 15.4533 11.1407L 15.4533 11.1407C 14.5994 13.1307 13.1472 14.5888 11.1403 15.4448L 11.1403 15.4448C 10.1371 15.8725 9.0852 16.0912 7.98685 16.0912C 6.88854 16.0912 5.8446 15.8748 4.84196 15.4447ZM 11.462 13.9979L 11.462 13.9979C 12.5309 13.3747 13.3787 12.5326 13.9979 11.4708C 14.6205 10.4027 14.9288 9.23811 14.9288 7.98682C 14.9288 6.73578 14.6185 5.58106 13.9978 4.52077L 13.9978 4.52076C 13.3767 3.45964 12.5306 2.61666 11.4618 1.99353L 11.5122 1.90714L 11.4618 1.99352C 10.4003 1.37457 9.23792 1.06225 7.98685 1.06225C 6.736 1.06225 5.58109 1.37271 4.52099 1.99343L 4.52098 1.99344C 3.4597 2.61476 2.61167 3.45778 1.9938 4.52054L 1.9938 4.52054C 1.37843 5.57889 1.07122 6.73555 1.07122 7.98685C 1.07122 8.9277 1.24865 9.83427 1.61421 10.6856L 1.61422 10.6856C 1.98204 11.5427 2.47311 12.2869 3.08882 12.9026C 3.70459 13.5182 4.4416 14.0058 5.29745 14.3774L 5.29746 14.3774C 6.15062 14.748 7.04681 14.929 7.98703 14.929C 9.23793 14.929 10.4006 14.6168 11.462 13.9979Z" transform="translate(1 1)" fill="#111111"/>
<path fill-rule="evenodd" clip-rule="evenodd" d="M 4.84196 15.4447L 4.84196 15.4447C 2.85193 14.5908 1.39313 13.1341 0.537956 11.1407C 0.108943 10.1406 -0.1 9.08468 -0.1 7.98682C -0.1 6.88907 0.108984 5.8417 0.537956 4.84196C 1.39321 2.84834 2.85194 1.40029 4.84197 0.546737C 5.84441 0.116671 6.88856 -0.1 7.98685 -0.1C 9.08536 -0.1 10.1371 0.118722 11.1405 0.546657C 13.1471 1.40248 14.5995 2.85154 15.4533 4.84195C 15.8835 5.84456 16.1 6.88854 16.1 7.98682C 16.1 9.08522 15.8834 10.1379 15.4533 11.1407L 15.4533 11.1407C 14.5994 13.1307 13.1472 14.5888 11.1403 15.4448L 11.1403 15.4448C 10.1371 15.8725 9.0852 16.0912 7.98685 16.0912C 6.88854 16.0912 5.8446 15.8748 4.84196 15.4447ZM 11.462 13.9979L 11.462 13.9979C 12.5309 13.3747 13.3787 12.5326 13.9979 11.4708C 14.6205 10.4027 14.9288 9.23811 14.9288 7.98682C 14.9288 6.73578 14.6185 5.58106 13.9978 4.52077L 13.9978 4.52076C 13.3767 3.45964 12.5306 2.61666 11.4618 1.99353L 11.5122 1.90714L 11.4618 1.99352C 10.4003 1.37457 9.23792 1.06225 7.98685 1.06225C 6.736 1.06225 5.58109 1.37271 4.52099 1.99343L 4.52098 1.99344C 3.4597 2.61476 2.61167 3.45778 1.9938 4.52054L 1.9938 4.52054C 1.37843 5.57889 1.07122 6.73555 1.07122 7.98685C 1.07122 8.9277 1.24865 9.83427 1.61421 10.6856L 1.61422 10.6856C 1.98204 11.5427 2.47311 12.2869 3.08882 12.9026C 3.70459 13.5182 4.4416 14.0058 5.29745 14.3774L 5.29746 14.3774C 6.15062 14.748 7.04681 14.929 7.98703 14.929C 9.23793 14.929 10.4006 14.6168 11.462 13.9979Z" stroke-width="0.2" stroke-miterlimit="8" transform="translate(1 1)" stroke="#111111"/>
</g>
<g id="Vector_2">
<path fill-rule="evenodd" clip-rule="evenodd" d="M 0.0780497 5.62582L 0.0779855 5.62576C -0.0472793 5.50028 -0.100324 5.34228 -0.0830134 5.16156C -0.0836654 5.15904 -0.0846514 5.15577 -0.0860828 5.15148L -0.0888612 5.1434L -0.0921258 5.13392C -0.0931716 5.13078 -0.0947077 5.12604 -0.0960491 5.12086L -0.0960743 5.12077C -0.0969791 5.11728 -0.1 5.10562 -0.1 5.09132L -0.1 0.489882C -0.1 0.163487 0.172278 -0.1 0.481124 -0.1C 0.80293 -0.1 1.08858 0.158988 1.08858 0.489882L 1.08858 4.98015L 3.50903 7.41791C 3.73372 7.64419 3.7509 7.99924 3.50878 8.2414C 3.3996 8.35065 3.24798 8.40197 3.10134 8.40197C 2.95469 8.40197 2.80305 8.35064 2.69381 8.24141L 0.0780497 5.62582Z" transform="translate(8.50586 3.89551)" fill="#111111"/>
<path fill-rule="evenodd" clip-rule="evenodd" d="M 0.0780497 5.62582L 0.0779855 5.62576C -0.0472793 5.50028 -0.100324 5.34228 -0.0830134 5.16156C -0.0836654 5.15904 -0.0846514 5.15577 -0.0860828 5.15148L -0.0888612 5.1434L -0.0921258 5.13392C -0.0931716 5.13078 -0.0947077 5.12604 -0.0960491 5.12086L -0.0960743 5.12077C -0.0969791 5.11728 -0.1 5.10562 -0.1 5.09132L -0.1 0.489882C -0.1 0.163487 0.172278 -0.1 0.481124 -0.1C 0.80293 -0.1 1.08858 0.158988 1.08858 0.489882L 1.08858 4.98015L 3.50903 7.41791C 3.73372 7.64419 3.7509 7.99924 3.50878 8.2414C 3.3996 8.35065 3.24798 8.40197 3.10134 8.40197C 2.95469 8.40197 2.80305 8.35064 2.69381 8.24141L 0.0780497 5.62582Z" stroke-width="0.2" stroke-miterlimit="8" transform="translate(8.50586 3.89551)" stroke="#111111"/>
</g>
</g>
</g>
</g>
</g>
</svg>

