<svg width="19" height="16" viewBox="0 0 19 16" version="1.1" xmlns="http://www.w3.org/2000/svg" xmlns:xlink="http://www.w3.org/1999/xlink">
<title>white-flag-symbol</title>
<desc>Created using Figma</desc>
<g id="Canvas" transform="translate(-20399 -185)">
<g id="white-flag-symbol">
<g id="Group">
<g id="Group">
<g id="Vector">
<use xlink:href="#flag-1" transform="translate(20399 185)" fill="#AAAAAA"/>
</g>
<g id="Vector">
<use xlink:href="#flag-2" transform="translate(20401.7 186.328)" fill="#AAAAAA"/>
</g>
</g>
</g>
</g>
</g>
<defs>
<path id="flag-1" d="M 1.33342 5.01047e-09C 0.965323 5.01047e-09 0.651077 0.130471 0.39061 0.39061C 0.130288 0.651077 0 0.96536 0 1.33342C 0 1.57645 0.0607477 1.79872 0.182353 2.00004C 0.303775 2.20144 0.465295 2.36113 0.66662 2.47924L 0.66662 15.6668C 0.66662 15.7641 0.697814 15.844 0.760386 15.9064C 0.822849 15.9689 0.902642 16 0.999984 16L 1.6666 16C 1.76387 16 1.84378 15.9689 1.9062 15.9064C 1.9687 15.844 1.9999 15.7641 1.9999 15.6668L 1.9999 2.47924C 2.20129 2.36113 2.36274 2.20144 2.48423 2.00004C 2.6058 1.79872 2.66651 1.57634 2.66651 1.33342C 2.66651 0.965469 2.53637 0.651223 2.27609 0.39061C 2.01566 0.130361 1.70137 5.01047e-09 1.33342 5.01047e-09Z"/>
<path id="flag-2" d="M 15.0106 0.0991588C 14.7953 -0.0257662 14.5801 -0.0326255 14.3645 0.0784352C 14.3022 0.113279 14.1944 0.172202 14.0417 0.255534C 12.7362 1.03329 11.6599 1.42222 10.8127 1.42222C 10.4584 1.42222 10.1492 1.35622 9.88546 1.22432C 9.10785 0.842397 8.38205 0.54373 7.70843 0.328395C 7.03481 0.113278 6.30912 0.0055744 5.5314 0.0055744C 5.02448 0.0055744 4.48621 0.0715761 3.91686 0.203543C 3.3474 0.335436 2.81778 0.507318 2.32822 0.719004C 1.8387 0.930837 1.44273 1.11137 1.14078 1.2607C 0.838501 1.41003 0.565957 1.55747 0.323003 1.70337C 0.107704 1.84223 1.04663e-07 2.0332 1.04663e-07 2.2763L 1.04663e-07 10.0054C 1.04663e-07 10.2623 0.111134 10.4568 0.333328 10.5887C 0.444425 10.6444 0.555559 10.672 0.666692 10.672C 0.791618 10.672 0.90629 10.6408 1.01035 10.5785C 1.67003 10.1757 2.46337 9.82131 3.39045 9.51578C 4.31765 9.21026 5.13539 9.05746 5.84371 9.05746C 6.24633 9.05746 6.64237 9.10602 7.03119 9.20329C 7.41998 9.30045 7.73612 9.40133 7.97908 9.50531C 8.22192 9.60955 8.56565 9.77614 9.01029 10.0054L 9.30195 10.1512C 9.7879 10.3944 10.3365 10.516 10.9475 10.516C 11.9963 10.516 13.2774 10.1132 14.7913 9.30767C 14.84 9.27994 14.899 9.24875 14.9684 9.21391C 15.2114 9.08891 15.3331 8.89112 15.3331 8.62022L 15.3331 0.672084C 15.3333 0.429057 15.2256 0.238167 15.0106 0.0991588ZM 13.9998 8.22447C 12.7984 8.86321 11.781 9.1826 10.9478 9.18275C 10.552 9.18275 10.2014 9.10631 9.89557 8.95362L 9.60405 8.80783C 9.22198 8.62026 8.93542 8.48318 8.74464 8.39628C 8.55375 8.30937 8.28617 8.20177 7.9427 8.07338C 7.59883 7.94492 7.2586 7.85465 6.92188 7.80255C 6.58516 7.75049 6.22571 7.72451 5.84368 7.72451C 4.53802 7.72451 3.03476 8.11684 1.33324 8.9017L 1.33324 2.66191C 2.93056 1.77985 4.32991 1.33889 5.53122 1.33889C 6.18404 1.33889 6.80203 1.4344 7.38521 1.6254C 7.96842 1.81629 8.60746 2.08202 9.30203 2.42217C 9.73926 2.6444 10.2428 2.75553 10.8122 2.75553C 11.7636 2.75553 12.8262 2.43946 13.9998 1.80761L 13.9998 8.22447L 13.9998 8.22447Z"/>
</defs>
</svg>
