<svg width="55" height="28" viewBox="0 0 55 28" version="1.1" xmlns="http://www.w3.org/2000/svg" xmlns:xlink="http://www.w3.org/1999/xlink">
<title>infinity</title>
<desc>Created using Figma</desc>
<g id="Canvas" transform="translate(-15536 1155)">
<g id="infinity">
<g id="Group">
<g id="Group">
<g id="Vector">
<use xlink:href="#path0_fill" transform="translate(15537 -1154)" fill="#1A82CB"/>
<use xlink:href="#path1_stroke" transform="translate(15537 -1154)" fill="#1A82CB"/>
</g>
</g>
</g>
</g>
</g>
<defs>
<path id="path0_fill" d="M 40.8823 0.0434624C 40.5584 0.0193375 40.2343 0.00695496 39.9902 0.0105844C 39.8918 -0.000624089 29.6044 -0.747428 25.4856 12.695C 21.8853 24.4464 13.545 23.9234 13.104 23.8916C 12.9394 23.8916 12.7738 23.8881 12.6082 23.8804C 6.72743 23.6218 2.11997 18.8427 2.11997 13.0004C 2.11997 6.99484 7.04728 2.10859 13.104 2.10859C 16.8585 2.10859 20.3148 3.98083 22.35 7.11696L 24.1325 5.97967C 21.7061 2.23936 17.5832 0.00642107 13.104 0.00642107C 5.87867 0.00652782 0 5.83546 0 13.0004C 0 19.9703 5.4966 25.6721 12.513 25.9805C 12.7086 25.9887 12.9042 25.9933 13.0098 25.9898C 13.0202 25.9908 13.1444 26 13.3619 26C 15.2116 26 23.8283 25.3349 27.5144 13.3057C 31.1147 1.55436 39.4571 2.07785 39.896 2.10859C 40.1745 2.10859 40.4518 2.11937 40.7251 2.13944C 46.4196 2.56024 50.88 7.33056 50.88 13.0004C 50.88 19.006 45.9527 23.8917 39.896 23.8917C 36.1415 23.8917 32.686 22.0196 30.651 18.8834L 28.8685 20.0207C 31.2949 23.761 35.4169 25.9939 39.896 25.9939C 47.1213 25.9939 53 20.1649 53 13.0005C 53 6.2364 47.6772 0.544854 40.8823 0.0434624Z"/>
<path id="path1_stroke" d="M 40.8823 0.0434624L 40.8452 0.542082L 40.8455 0.542107L 40.8823 0.0434624ZM 39.9902 0.0105844L 39.9336 0.507372L 39.9655 0.511006L 39.9976 0.510529L 39.9902 0.0105844ZM 25.4856 12.695L 25.0075 12.5486L 25.0075 12.5486L 25.4856 12.695ZM 13.104 23.8916L 13.14 23.3929L 13.122 23.3916L 13.104 23.3916L 13.104 23.8916ZM 12.6082 23.8804L 12.6313 23.381L 12.6301 23.3809L 12.6082 23.8804ZM 22.35 7.11696L 21.9305 7.38914L 22.2006 7.80533L 22.6189 7.53848L 22.35 7.11696ZM 24.1325 5.97967L 24.4015 6.40119L 24.8262 6.13021L 24.552 5.70755L 24.1325 5.97967ZM 13.104 0.00642107L 13.104 -0.493579L 13.104 -0.493579L 13.104 0.00642107ZM 12.513 25.9805L 12.491 26.48L 12.492 26.48L 12.513 25.9805ZM 13.0098 25.9898L 13.0612 25.4924L 13.0273 25.4889L 12.9932 25.49L 13.0098 25.9898ZM 27.5144 13.3057L 27.9925 13.4522L 27.9925 13.4522L 27.5144 13.3057ZM 39.896 2.10859L 39.861 2.60737L 39.8785 2.60859L 39.896 2.60859L 39.896 2.10859ZM 40.7251 2.13944L 40.762 1.6408L 40.7618 1.64078L 40.7251 2.13944ZM 30.651 18.8834L 31.0704 18.6112L 30.8004 18.195L 30.3821 18.4619L 30.651 18.8834ZM 28.8685 20.0207L 28.5996 19.5992L 28.1749 19.8701L 28.4491 20.2928L 28.8685 20.0207ZM 40.9195 -0.455157C 40.5861 -0.479985 40.2463 -0.493279 39.9827 -0.48936L 39.9976 0.510529C 40.2223 0.507189 40.5307 0.51866 40.8452 0.542082L 40.9195 -0.455157ZM 40.0468 -0.486203C 39.93 -0.49951 37.2335 -0.686003 34.0286 0.857187C 30.8002 2.41171 27.1065 5.69807 25.0075 12.5486L 25.9636 12.8415C 27.9834 6.24953 31.4929 3.18807 34.4624 1.75818C 37.4556 0.316957 39.952 0.50947 39.9336 0.507372L 40.0468 -0.486203ZM 25.0075 12.5486C 23.2432 18.3072 20.341 21.0005 17.8811 22.2675C 15.4047 23.5431 13.3133 23.4054 13.14 23.3929L 13.068 24.3903C 13.3357 24.4097 15.635 24.5493 18.339 23.1565C 21.0596 21.7552 24.1276 18.8343 25.9636 12.8415L 25.0075 12.5486ZM 13.104 23.3916C 12.9465 23.3916 12.7887 23.3883 12.6313 23.381L 12.585 24.3799C 12.759 24.388 12.9323 24.3916 13.104 24.3916L 13.104 23.3916ZM 12.6301 23.3809C 7.01336 23.1339 2.61997 18.5717 2.61997 13.0004L 1.61997 13.0004C 1.61997 19.1137 6.4415 24.1097 12.5862 24.3799L 12.6301 23.3809ZM 2.61997 13.0004C 2.61997 7.27494 7.31945 2.60859 13.104 2.60859L 13.104 1.60859C 6.77511 1.60859 1.61997 6.71474 1.61997 13.0004L 2.61997 13.0004ZM 13.104 2.60859C 16.69 2.60859 19.9881 4.39582 21.9305 7.38914L 22.7694 6.84478C 20.6416 3.56585 17.027 1.60859 13.104 1.60859L 13.104 2.60859ZM 22.6189 7.53848L 24.4015 6.40119L 23.8636 5.55816L 22.081 6.69544L 22.6189 7.53848ZM 24.552 5.70755C 22.0328 1.82432 17.7516 -0.493579 13.104 -0.493579L 13.104 0.506421C 17.4147 0.506421 21.3793 2.6544 23.7131 6.25179L 24.552 5.70755ZM 13.104 -0.493579C 5.60653 -0.493468 -0.5 5.55534 -0.5 13.0004L 0.5 13.0004C 0.5 6.11558 6.15082 0.506524 13.104 0.506421L 13.104 -0.493579ZM -0.5 13.0004C -0.5 20.2412 5.21067 26.16 12.491 26.48L 12.5349 25.4809C 5.78254 25.1842 0.5 19.6993 0.5 13.0004L -0.5 13.0004ZM 12.492 26.48C 12.6875 26.4882 12.9 26.4937 13.0265 26.4895L 12.9932 25.49C 12.9084 25.4929 12.7297 25.4891 12.534 25.4809L 12.492 26.48ZM 12.9584 26.4871C 12.9922 26.4906 13.1351 26.5 13.3619 26.5L 13.3619 25.5C 13.1537 25.5 13.0481 25.491 13.0612 25.4924L 12.9584 26.4871ZM 13.3619 26.5C 14.3408 26.5 17.0543 26.3248 20.0025 24.595C 22.9634 22.8578 26.1151 19.5789 27.9925 13.4522L 27.0364 13.1592C 25.2277 19.0617 22.2279 22.1299 19.4965 23.7325C 16.7523 25.3426 14.2326 25.5 13.3619 25.5L 13.3619 26.5ZM 27.9925 13.4522C 29.7567 7.69365 32.6595 5.00047 35.1196 3.73338C 37.5963 2.45782 39.6877 2.59523 39.861 2.60737L 39.9309 1.60981C 39.6653 1.59121 37.3661 1.4515 34.6618 2.84436C 31.941 4.24568 28.8724 7.16645 27.0364 13.1593L 27.9925 13.4522ZM 39.896 2.60859C 40.1616 2.60859 40.4267 2.61888 40.6885 2.6381L 40.7618 1.64078C 40.4769 1.61987 40.1873 1.60859 39.896 1.60859L 39.896 2.60859ZM 40.6883 2.63808C 46.1246 3.03981 50.38 7.59541 50.38 13.0004L 51.38 13.0004C 51.38 7.06571 46.7146 2.08067 40.762 1.6408L 40.6883 2.63808ZM 50.38 13.0004C 50.38 18.7259 45.6806 23.3917 39.896 23.3917L 39.896 24.3917C 46.2249 24.3917 51.38 19.2862 51.38 13.0004L 50.38 13.0004ZM 39.896 23.3917C 36.31 23.3917 33.0128 21.6047 31.0704 18.6112L 30.2316 19.1555C 32.3593 22.4346 35.9729 24.3917 39.896 24.3917L 39.896 23.3917ZM 30.3821 18.4619L 28.5996 19.5992L 29.1375 20.4422L 30.9199 19.3049L 30.3821 18.4619ZM 28.4491 20.2928C 30.9681 24.176 35.2485 26.4939 39.896 26.4939L 39.896 25.4939C 35.5854 25.4939 31.6217 23.346 29.288 19.7486L 28.4491 20.2928ZM 39.896 26.4939C 47.3935 26.4939 53.5 20.445 53.5 13.0005L 52.5 13.0005C 52.5 19.8847 46.8492 25.4939 39.896 25.4939L 39.896 26.4939ZM 53.5 13.0005C 53.5 5.97148 47.972 0.0652547 40.9191 -0.455182L 40.8455 0.542107C 47.3823 1.02445 52.5 6.50132 52.5 13.0005L 53.5 13.0005Z"/>
</defs>
</svg>
