<svg id="Layer_1" data-name="Layer 1" xmlns="http://www.w3.org/2000/svg" viewBox="0 0 328.59 477.24"><defs><style>.cls-1{fill:#247ab9;}</style></defs><title>logo</title><path class="cls-1" d="M258.55,313a17.93,17.93,0,1,0-17.92,17.93A17.93,17.93,0,0,0,258.55,313Z"/><circle class="cls-1" cx="150.36" cy="137.51" r="8.84"/><path class="cls-1" d="M195.19,86.14a13,13,0,1,0-13,13A13,13,0,0,0,195.19,86.14Z"/><path class="cls-1" d="M182,17.2a17.2,17.2,0,1,0-17.2,17.2A17.19,17.19,0,0,0,182,17.2Z"/><path class="cls-1" d="M182.23,313a17.93,17.93,0,1,0-17.93,17.93A17.93,17.93,0,0,0,182.23,313Z"/><path class="cls-1" d="M105.89,313A17.93,17.93,0,1,0,88,330.88,17.93,17.93,0,0,0,105.89,313Z"/><path class="cls-1" d="M164.29,442.35c-71.35,0-129.4-58-129.4-129.39a129,129,0,0,1,70.69-115.35l9.52-4.86V99.23H50.89v34.89H80.21v37.65A163.61,163.61,0,0,0,0,313c0,90.59,73.7,164.29,164.29,164.29a163.18,163.18,0,0,0,82.06-22.06l-36.58-21.11A128.7,128.7,0,0,1,164.29,442.35Z"/><path class="cls-1" d="M248.39,171.78V134.12h29.32V99.23H213.5v93.53l9.51,4.86a129.35,129.35,0,0,1,23.43,215.24v42.29a164.24,164.24,0,0,0,2-283.36Z"/></svg>