<svg width="16" height="20" viewBox="0 0 16 20" version="1.1" xmlns="http://www.w3.org/2000/svg" xmlns:xlink="http://www.w3.org/1999/xlink">
<g id="Canvas" fill="none">
<g id="pin">
<g id="Group">
<g id="Group_2">
<g id="Vector">
<path d="M 3.70731 -1.3807e-07C 1.66311 -1.3807e-07 2.42813e-07 1.66311 2.42813e-07 3.70731C 2.42813e-07 5.75151 1.66311 7.41461 3.70731 7.41461C 5.75151 7.41461 7.41461 5.75151 7.41461 3.70731C 7.41461 1.66311 5.75154 -1.3807e-07 3.70731 -1.3807e-07ZM 3.70731 5.85365C 2.52381 5.85365 1.56096 4.8908 1.56096 3.70731C 1.56096 2.52381 2.52381 1.56096 3.70731 1.56096C 4.8908 1.56096 5.85365 2.52381 5.85365 3.70731C 5.85365 4.8908 4.8908 5.85365 3.70731 5.85365Z" transform="translate(4.29297 4.29272)" fill="#111111"/>
</g>
</g>
</g>
<g id="Group_3">
<g id="Group_4">
<g id="Vector_2">
<path d="M 8 0C 3.58878 0 -6.54644e-08 3.58882 -6.54644e-08 8L -6.54644e-08 8.22114C -6.54644e-08 10.4521 1.27905 13.0518 3.80173 15.948C 5.63048 18.0476 7.43368 19.5116 7.5095 19.5729L 8 19.9693L 8.49049 19.573C 8.56635 19.5117 10.3696 18.0477 12.1983 15.9481C 14.7209 13.0518 16 10.4521 16 8.22118L 16 8.00004C 16 3.58882 12.4112 0 8 0ZM 14.439 8.22118C 14.439 11.9914 9.58124 16.5552 8 17.9407C 6.41833 16.5548 1.56096 11.9911 1.56096 8.22118L 1.56096 8.00004C 1.56096 4.44956 4.44952 1.561 8 1.561C 11.5505 1.561 14.439 4.44956 14.439 8.00004L 14.439 8.22118Z" fill="#111111"/>
</g>
</g>
</g>
</g>
</g>
</svg>

